<svg height="512pt" viewBox="-57 0 512 512" width="512pt" xmlns="http://www.w3.org/2000/svg"><path d="m398.636719 464.160156-26.988281-337.335937c-.613282-7.679688-7.023438-13.59375-14.722657-13.59375h-54.152343v-9.847657c0-57.003906-46.378907-103.382812-103.386719-103.382812-57.003907 0-103.382813 46.378906-103.382813 103.382812v9.847657h-54.15625c-7.699218 0-14.105468 5.914062-14.71875 13.59375l-26.988281 337.335937c-.984375 12.285156 3.25 24.53125 11.609375 33.585938 8.363281 9.058594 20.230469 14.253906 32.558594 14.253906h310.160156c12.328125 0 24.191406-5.195312 32.554688-14.253906 8.363281-9.054688 12.59375-21.296875 11.613281-33.585938zm-273.09375-360.777344c0-40.71875 33.125-73.84375 73.84375-73.84375s73.847656 33.125 73.847656 73.84375v9.847657h-147.691406zm239.777343 374.328126c-2.828124 3.0625-6.683593 4.75-10.851562 4.75h-310.160156c-4.171875 0-8.023438-1.6875-10.851563-4.75-2.832031-3.0625-4.203125-7.039063-3.871093-11.195313l25.898437-323.746094h40.519531v54.152344c0 8.15625 6.613282 14.769531 14.769532 14.769531s14.769531-6.613281 14.769531-14.769531v-54.152344h147.691406v54.152344c0 8.15625 6.613281 14.769531 14.769531 14.769531s14.769532-6.613281 14.769532-14.769531v-54.152344h40.519531l25.898437 323.746094c.332032 4.15625-1.042968 8.132813-3.871094 11.195313zm0 0"/><path d="m317.542969 398.769531h-236.308594c-8.15625 0-14.769531 6.613281-14.769531 14.769531s6.613281 14.769532 14.769531 14.769532h236.308594c8.15625 0 14.769531-6.613282 14.769531-14.769532s-6.613281-14.769531-14.769531-14.769531zm0 0"/></svg>